<svg width="20.000000" height="17.000000" viewBox="0 0 20 17" fill="none" xmlns="http://www.w3.org/2000/svg" xmlns:xlink="http://www.w3.org/1999/xlink">
	<desc>
			Created with Pixso.
	</desc>
	<defs/>
	<path id="Vector" d="M16.07 0.84C15.5 0.61 14.88 0.5 14.26 0.5C13.64 0.5 13.02 0.61 12.44 0.84C11.87 1.07 11.35 1.4 10.91 1.82L9.99 2.69L9.08 1.82C8.19 0.97 6.99 0.5 5.73 0.5C4.48 0.5 3.27 0.97 2.38 1.82C1.49 2.67 1 3.82 1 5.02C1 6.22 1.49 7.37 2.38 8.22L3.3 9.09L9.99 15.5L16.69 9.09L17.61 8.22C18.05 7.8 18.4 7.3 18.63 6.75C18.87 6.2 19 5.62 19 5.02C19 4.43 18.87 3.84 18.63 3.29C18.4 2.74 18.05 2.24 17.61 1.82C17.17 1.4 16.64 1.07 16.07 0.84Z" stroke="#0C0C0C" stroke-opacity="1.000000" stroke-width="2.000000" stroke-linejoin="round"/>
</svg>
